<svg xmlns="http://www.w3.org/2000/svg" width="940" height="1040">
<rect width="940" height="1040" fill="#ffffff"/>
<text x="470.0" y="28" text-anchor="middle" font-family="Arial" font-size="18" fill="#222">RMSE vs beta (base=80, scale=space, n_trials=8, noise=gate)</text>
<rect x="60" y="50" width="260" height="200" fill="none" stroke="#e0e0e0"/>
<line x1="100" y1="220" x2="310" y2="220" stroke="#222"/>
<line x1="100" y1="70" x2="100" y2="220" stroke="#222"/>
<line x1="100.0" y1="220" x2="100.0" y2="224" stroke="#222"/>
<line x1="152.5" y1="220" x2="152.5" y2="224" stroke="#222"/>
<line x1="205.0" y1="220" x2="205.0" y2="224" stroke="#222"/>
<line x1="257.5" y1="220" x2="257.5" y2="224" stroke="#222"/>
<line x1="310.0" y1="220" x2="310.0" y2="224" stroke="#222"/>
<line x1="96" y1="220.0" x2="100" y2="220.0" stroke="#222"/>
<text x="94" y="223.0" text-anchor="end" font-family="Arial" font-size="10" fill="#222">-0.045</text>
<line x1="96" y1="182.5" x2="100" y2="182.5" stroke="#222"/>
<text x="94" y="185.5" text-anchor="end" font-family="Arial" font-size="10" fill="#222">0.075</text>
<line x1="96" y1="145.0" x2="100" y2="145.0" stroke="#222"/>
<text x="94" y="148.0" text-anchor="end" font-family="Arial" font-size="10" fill="#222">0.194</text>
<line x1="96" y1="107.5" x2="100" y2="107.5" stroke="#222"/>
<text x="94" y="110.5" text-anchor="end" font-family="Arial" font-size="10" fill="#222">0.314</text>
<line x1="96" y1="70.0" x2="100" y2="70.0" stroke="#222"/>
<text x="94" y="73.0" text-anchor="end" font-family="Arial" font-size="10" fill="#222">0.434</text>
<text x="68" y="64" text-anchor="start" font-family="Arial" font-size="12" fill="#222">2q d3</text>
<text x="70" y="145.0" text-anchor="middle" font-family="Arial" font-size="11" fill="#222" transform="rotate(-90 70 145.0)">RMSE</text>
<polygon points="117.5,190.0 161.2,179.6 205.0,149.4 292.5,143.2 292.5,167.9 205.0,177.9 161.2,194.7 117.5,200.8" fill="#1b9e77" opacity="0.18" stroke="none"/>
<polyline points="117.5,193.8 161.2,185.4 205.0,163.4 292.5,155.8" fill="none" stroke="#1b9e77" stroke-width="1.5"/>
<circle cx="117.5" cy="193.8" r="3.5" fill="#1b9e77"/>
<circle cx="161.2" cy="185.4" r="3.5" fill="#1b9e77"/>
<circle cx="205.0" cy="163.4" r="3.5" fill="#1b9e77"/>
<circle cx="292.5" cy="155.8" r="3.5" fill="#1b9e77"/>
<rect x="360" y="50" width="260" height="200" fill="none" stroke="#e0e0e0"/>
<line x1="400" y1="220" x2="610" y2="220" stroke="#222"/>
<line x1="400" y1="70" x2="400" y2="220" stroke="#222"/>
<line x1="400.0" y1="220" x2="400.0" y2="224" stroke="#222"/>
<line x1="452.5" y1="220" x2="452.5" y2="224" stroke="#222"/>
<line x1="505.0" y1="220" x2="505.0" y2="224" stroke="#222"/>
<line x1="557.5" y1="220" x2="557.5" y2="224" stroke="#222"/>
<line x1="610.0" y1="220" x2="610.0" y2="224" stroke="#222"/>
<line x1="396" y1="220.0" x2="400" y2="220.0" stroke="#222"/>
<line x1="396" y1="182.5" x2="400" y2="182.5" stroke="#222"/>
<line x1="396" y1="145.0" x2="400" y2="145.0" stroke="#222"/>
<line x1="396" y1="107.5" x2="400" y2="107.5" stroke="#222"/>
<line x1="396" y1="70.0" x2="400" y2="70.0" stroke="#222"/>
<text x="368" y="64" text-anchor="start" font-family="Arial" font-size="12" fill="#222">2q d5</text>
<polygon points="417.5,198.2 461.2,182.7 505.0,172.9 592.5,157.1 592.5,176.8 505.0,191.0 461.2,197.1 417.5,204.7" fill="#d95f02" opacity="0.18" stroke="none"/>
<polyline points="417.5,201.7 461.2,189.5 505.0,182.1 592.5,166.5" fill="none" stroke="#d95f02" stroke-width="1.5"/>
<circle cx="417.5" cy="201.7" r="3.5" fill="#d95f02"/>
<circle cx="461.2" cy="189.5" r="3.5" fill="#d95f02"/>
<circle cx="505.0" cy="182.1" r="3.5" fill="#d95f02"/>
<circle cx="592.5" cy="166.5" r="3.5" fill="#d95f02"/>
<rect x="660" y="50" width="260" height="200" fill="none" stroke="#e0e0e0"/>
<line x1="700" y1="220" x2="910" y2="220" stroke="#222"/>
<line x1="700" y1="70" x2="700" y2="220" stroke="#222"/>
<line x1="700.0" y1="220" x2="700.0" y2="224" stroke="#222"/>
<line x1="752.5" y1="220" x2="752.5" y2="224" stroke="#222"/>
<line x1="805.0" y1="220" x2="805.0" y2="224" stroke="#222"/>
<line x1="857.5" y1="220" x2="857.5" y2="224" stroke="#222"/>
<line x1="910.0" y1="220" x2="910.0" y2="224" stroke="#222"/>
<line x1="696" y1="220.0" x2="700" y2="220.0" stroke="#222"/>
<line x1="696" y1="182.5" x2="700" y2="182.5" stroke="#222"/>
<line x1="696" y1="145.0" x2="700" y2="145.0" stroke="#222"/>
<line x1="696" y1="107.5" x2="700" y2="107.5" stroke="#222"/>
<line x1="696" y1="70.0" x2="700" y2="70.0" stroke="#222"/>
<text x="668" y="64" text-anchor="start" font-family="Arial" font-size="12" fill="#222">3q d4</text>
<polygon points="717.5,198.2 761.2,195.6 805.0,168.9 892.5,155.7 892.5,192.0 805.0,201.2 761.2,202.6 717.5,204.9" fill="#7570b3" opacity="0.18" stroke="none"/>
<polyline points="717.5,200.7 761.2,198.2 805.0,183.0 892.5,173.1" fill="none" stroke="#7570b3" stroke-width="1.5"/>
<circle cx="717.5" cy="200.7" r="3.5" fill="#7570b3"/>
<circle cx="761.2" cy="198.2" r="3.5" fill="#7570b3"/>
<circle cx="805.0" cy="183.0" r="3.5" fill="#7570b3"/>
<circle cx="892.5" cy="173.1" r="3.5" fill="#7570b3"/>
<rect x="60" y="300" width="260" height="200" fill="none" stroke="#e0e0e0"/>
<line x1="100" y1="470" x2="310" y2="470" stroke="#222"/>
<line x1="100" y1="320" x2="100" y2="470" stroke="#222"/>
<line x1="100.0" y1="470" x2="100.0" y2="474" stroke="#222"/>
<line x1="152.5" y1="470" x2="152.5" y2="474" stroke="#222"/>
<line x1="205.0" y1="470" x2="205.0" y2="474" stroke="#222"/>
<line x1="257.5" y1="470" x2="257.5" y2="474" stroke="#222"/>
<line x1="310.0" y1="470" x2="310.0" y2="474" stroke="#222"/>
<line x1="96" y1="470.0" x2="100" y2="470.0" stroke="#222"/>
<text x="94" y="473.0" text-anchor="end" font-family="Arial" font-size="10" fill="#222">-0.045</text>
<line x1="96" y1="432.5" x2="100" y2="432.5" stroke="#222"/>
<text x="94" y="435.5" text-anchor="end" font-family="Arial" font-size="10" fill="#222">0.075</text>
<line x1="96" y1="395.0" x2="100" y2="395.0" stroke="#222"/>
<text x="94" y="398.0" text-anchor="end" font-family="Arial" font-size="10" fill="#222">0.194</text>
<line x1="96" y1="357.5" x2="100" y2="357.5" stroke="#222"/>
<text x="94" y="360.5" text-anchor="end" font-family="Arial" font-size="10" fill="#222">0.314</text>
<line x1="96" y1="320.0" x2="100" y2="320.0" stroke="#222"/>
<text x="94" y="323.0" text-anchor="end" font-family="Arial" font-size="10" fill="#222">0.434</text>
<text x="68" y="314" text-anchor="start" font-family="Arial" font-size="12" fill="#222">3q d6</text>
<text x="70" y="395.0" text-anchor="middle" font-family="Arial" font-size="11" fill="#222" transform="rotate(-90 70 395.0)">RMSE</text>
<polygon points="117.5,443.7 161.2,411.4 205.0,381.6 292.5,349.6 292.5,406.9 205.0,427.4 161.2,439.1 117.5,453.7" fill="#e7298a" opacity="0.18" stroke="none"/>
<polyline points="117.5,447.7 161.2,425.0 205.0,404.7 292.5,376.4" fill="none" stroke="#e7298a" stroke-width="1.5"/>
<circle cx="117.5" cy="447.7" r="3.5" fill="#e7298a"/>
<circle cx="161.2" cy="425.0" r="3.5" fill="#e7298a"/>
<circle cx="205.0" cy="404.7" r="3.5" fill="#e7298a"/>
<circle cx="292.5" cy="376.4" r="3.5" fill="#e7298a"/>
<rect x="360" y="300" width="260" height="200" fill="none" stroke="#e0e0e0"/>
<line x1="400" y1="470" x2="610" y2="470" stroke="#222"/>
<line x1="400" y1="320" x2="400" y2="470" stroke="#222"/>
<line x1="400.0" y1="470" x2="400.0" y2="474" stroke="#222"/>
<line x1="452.5" y1="470" x2="452.5" y2="474" stroke="#222"/>
<line x1="505.0" y1="470" x2="505.0" y2="474" stroke="#222"/>
<line x1="557.5" y1="470" x2="557.5" y2="474" stroke="#222"/>
<line x1="610.0" y1="470" x2="610.0" y2="474" stroke="#222"/>
<line x1="396" y1="470.0" x2="400" y2="470.0" stroke="#222"/>
<line x1="396" y1="432.5" x2="400" y2="432.5" stroke="#222"/>
<line x1="396" y1="395.0" x2="400" y2="395.0" stroke="#222"/>
<line x1="396" y1="357.5" x2="400" y2="357.5" stroke="#222"/>
<line x1="396" y1="320.0" x2="400" y2="320.0" stroke="#222"/>
<text x="368" y="314" text-anchor="start" font-family="Arial" font-size="12" fill="#222">4q d4</text>
<polygon points="417.5,445.4 461.2,429.7 505.0,416.4 592.5,399.0 592.5,439.6 505.0,445.7 461.2,451.4 417.5,452.0" fill="#66a61e" opacity="0.18" stroke="none"/>
<polyline points="417.5,448.0 461.2,439.8 505.0,429.4 592.5,418.5" fill="none" stroke="#66a61e" stroke-width="1.5"/>
<circle cx="417.5" cy="448.0" r="3.5" fill="#66a61e"/>
<circle cx="461.2" cy="439.8" r="3.5" fill="#66a61e"/>
<circle cx="505.0" cy="429.4" r="3.5" fill="#66a61e"/>
<circle cx="592.5" cy="418.5" r="3.5" fill="#66a61e"/>
<rect x="660" y="300" width="260" height="200" fill="none" stroke="#e0e0e0"/>
<line x1="700" y1="470" x2="910" y2="470" stroke="#222"/>
<line x1="700" y1="320" x2="700" y2="470" stroke="#222"/>
<line x1="700.0" y1="470" x2="700.0" y2="474" stroke="#222"/>
<line x1="752.5" y1="470" x2="752.5" y2="474" stroke="#222"/>
<line x1="805.0" y1="470" x2="805.0" y2="474" stroke="#222"/>
<line x1="857.5" y1="470" x2="857.5" y2="474" stroke="#222"/>
<line x1="910.0" y1="470" x2="910.0" y2="474" stroke="#222"/>
<line x1="696" y1="470.0" x2="700" y2="470.0" stroke="#222"/>
<line x1="696" y1="432.5" x2="700" y2="432.5" stroke="#222"/>
<line x1="696" y1="395.0" x2="700" y2="395.0" stroke="#222"/>
<line x1="696" y1="357.5" x2="700" y2="357.5" stroke="#222"/>
<line x1="696" y1="320.0" x2="700" y2="320.0" stroke="#222"/>
<text x="668" y="314" text-anchor="start" font-family="Arial" font-size="12" fill="#222">4q d6</text>
<polygon points="717.5,436.6 761.2,408.1 805.0,378.0 892.5,334.5 892.5,423.3 805.0,445.6 761.2,446.7 717.5,449.5" fill="#e6ab02" opacity="0.18" stroke="none"/>
<polyline points="717.5,443.0 761.2,424.2 805.0,404.7 892.5,377.5" fill="none" stroke="#e6ab02" stroke-width="1.5"/>
<circle cx="717.5" cy="443.0" r="3.5" fill="#e6ab02"/>
<circle cx="761.2" cy="424.2" r="3.5" fill="#e6ab02"/>
<circle cx="805.0" cy="404.7" r="3.5" fill="#e6ab02"/>
<circle cx="892.5" cy="377.5" r="3.5" fill="#e6ab02"/>
<rect x="60" y="550" width="260" height="200" fill="none" stroke="#e0e0e0"/>
<line x1="100" y1="720" x2="310" y2="720" stroke="#222"/>
<line x1="100" y1="570" x2="100" y2="720" stroke="#222"/>
<line x1="100.0" y1="720" x2="100.0" y2="724" stroke="#222"/>
<line x1="152.5" y1="720" x2="152.5" y2="724" stroke="#222"/>
<line x1="205.0" y1="720" x2="205.0" y2="724" stroke="#222"/>
<line x1="257.5" y1="720" x2="257.5" y2="724" stroke="#222"/>
<line x1="310.0" y1="720" x2="310.0" y2="724" stroke="#222"/>
<line x1="96" y1="720.0" x2="100" y2="720.0" stroke="#222"/>
<text x="94" y="723.0" text-anchor="end" font-family="Arial" font-size="10" fill="#222">-0.045</text>
<line x1="96" y1="682.5" x2="100" y2="682.5" stroke="#222"/>
<text x="94" y="685.5" text-anchor="end" font-family="Arial" font-size="10" fill="#222">0.075</text>
<line x1="96" y1="645.0" x2="100" y2="645.0" stroke="#222"/>
<text x="94" y="648.0" text-anchor="end" font-family="Arial" font-size="10" fill="#222">0.194</text>
<line x1="96" y1="607.5" x2="100" y2="607.5" stroke="#222"/>
<text x="94" y="610.5" text-anchor="end" font-family="Arial" font-size="10" fill="#222">0.314</text>
<line x1="96" y1="570.0" x2="100" y2="570.0" stroke="#222"/>
<text x="94" y="573.0" text-anchor="end" font-family="Arial" font-size="10" fill="#222">0.434</text>
<text x="68" y="564" text-anchor="start" font-family="Arial" font-size="12" fill="#222">5q d4</text>
<text x="70" y="645.0" text-anchor="middle" font-family="Arial" font-size="11" fill="#222" transform="rotate(-90 70 645.0)">RMSE</text>
<polygon points="117.5,701.7 161.2,677.3 205.0,670.5 292.5,656.7 292.5,700.2 205.0,702.5 161.2,703.3 117.5,704.6" fill="#1b9e77" opacity="0.18" stroke="none"/>
<polyline points="117.5,703.1 161.2,686.9 205.0,682.0 292.5,671.8" fill="none" stroke="#1b9e77" stroke-width="1.5"/>
<circle cx="117.5" cy="703.1" r="3.5" fill="#1b9e77"/>
<circle cx="161.2" cy="686.9" r="3.5" fill="#1b9e77"/>
<circle cx="205.0" cy="682.0" r="3.5" fill="#1b9e77"/>
<circle cx="292.5" cy="671.8" r="3.5" fill="#1b9e77"/>
<rect x="360" y="550" width="260" height="200" fill="none" stroke="#e0e0e0"/>
<line x1="400" y1="720" x2="610" y2="720" stroke="#222"/>
<line x1="400" y1="570" x2="400" y2="720" stroke="#222"/>
<line x1="400.0" y1="720" x2="400.0" y2="724" stroke="#222"/>
<line x1="452.5" y1="720" x2="452.5" y2="724" stroke="#222"/>
<line x1="505.0" y1="720" x2="505.0" y2="724" stroke="#222"/>
<line x1="557.5" y1="720" x2="557.5" y2="724" stroke="#222"/>
<line x1="610.0" y1="720" x2="610.0" y2="724" stroke="#222"/>
<line x1="396" y1="720.0" x2="400" y2="720.0" stroke="#222"/>
<line x1="396" y1="682.5" x2="400" y2="682.5" stroke="#222"/>
<line x1="396" y1="645.0" x2="400" y2="645.0" stroke="#222"/>
<line x1="396" y1="607.5" x2="400" y2="607.5" stroke="#222"/>
<line x1="396" y1="570.0" x2="400" y2="570.0" stroke="#222"/>
<text x="368" y="564" text-anchor="start" font-family="Arial" font-size="12" fill="#222">5q d6</text>
<polygon points="417.5,697.0 461.2,687.5 505.0,668.4 592.5,651.6 592.5,699.7 505.0,698.1 461.2,703.3 417.5,702.9" fill="#d95f02" opacity="0.18" stroke="none"/>
<polyline points="417.5,699.5 461.2,692.0 505.0,678.4 592.5,668.8" fill="none" stroke="#d95f02" stroke-width="1.5"/>
<circle cx="417.5" cy="699.5" r="3.5" fill="#d95f02"/>
<circle cx="461.2" cy="692.0" r="3.5" fill="#d95f02"/>
<circle cx="505.0" cy="678.4" r="3.5" fill="#d95f02"/>
<circle cx="592.5" cy="668.8" r="3.5" fill="#d95f02"/>
<rect x="660" y="550" width="260" height="200" fill="none" stroke="#e0e0e0"/>
<line x1="700" y1="720" x2="910" y2="720" stroke="#222"/>
<line x1="700" y1="570" x2="700" y2="720" stroke="#222"/>
<line x1="700.0" y1="720" x2="700.0" y2="724" stroke="#222"/>
<line x1="752.5" y1="720" x2="752.5" y2="724" stroke="#222"/>
<line x1="805.0" y1="720" x2="805.0" y2="724" stroke="#222"/>
<line x1="857.5" y1="720" x2="857.5" y2="724" stroke="#222"/>
<line x1="910.0" y1="720" x2="910.0" y2="724" stroke="#222"/>
<line x1="696" y1="720.0" x2="700" y2="720.0" stroke="#222"/>
<line x1="696" y1="682.5" x2="700" y2="682.5" stroke="#222"/>
<line x1="696" y1="645.0" x2="700" y2="645.0" stroke="#222"/>
<line x1="696" y1="607.5" x2="700" y2="607.5" stroke="#222"/>
<line x1="696" y1="570.0" x2="700" y2="570.0" stroke="#222"/>
<text x="668" y="564" text-anchor="start" font-family="Arial" font-size="12" fill="#222">6q d4</text>
<polygon points="717.5,703.3 761.2,700.2 805.0,698.6 892.5,695.4 892.5,704.0 805.0,704.1 761.2,704.7 717.5,705.5" fill="#7570b3" opacity="0.18" stroke="none"/>
<polyline points="717.5,704.3 761.2,702.2 805.0,700.9 892.5,698.7" fill="none" stroke="#7570b3" stroke-width="1.5"/>
<circle cx="717.5" cy="704.3" r="3.5" fill="#7570b3"/>
<circle cx="761.2" cy="702.2" r="3.5" fill="#7570b3"/>
<circle cx="805.0" cy="700.9" r="3.5" fill="#7570b3"/>
<circle cx="892.5" cy="698.7" r="3.5" fill="#7570b3"/>
<rect x="60" y="800" width="260" height="200" fill="none" stroke="#e0e0e0"/>
<line x1="100" y1="970" x2="310" y2="970" stroke="#222"/>
<line x1="100" y1="820" x2="100" y2="970" stroke="#222"/>
<line x1="100.0" y1="970" x2="100.0" y2="974" stroke="#222"/>
<text x="100.0" y="986" text-anchor="middle" font-family="Arial" font-size="10" fill="#222">-0.02</text>
<line x1="152.5" y1="970" x2="152.5" y2="974" stroke="#222"/>
<text x="152.5" y="986" text-anchor="middle" font-family="Arial" font-size="10" fill="#222">0.04</text>
<line x1="205.0" y1="970" x2="205.0" y2="974" stroke="#222"/>
<text x="205.0" y="986" text-anchor="middle" font-family="Arial" font-size="10" fill="#222">0.10</text>
<line x1="257.5" y1="970" x2="257.5" y2="974" stroke="#222"/>
<text x="257.5" y="986" text-anchor="middle" font-family="Arial" font-size="10" fill="#222">0.16</text>
<line x1="310.0" y1="970" x2="310.0" y2="974" stroke="#222"/>
<text x="310.0" y="986" text-anchor="middle" font-family="Arial" font-size="10" fill="#222">0.22</text>
<line x1="96" y1="970.0" x2="100" y2="970.0" stroke="#222"/>
<text x="94" y="973.0" text-anchor="end" font-family="Arial" font-size="10" fill="#222">-0.045</text>
<line x1="96" y1="932.5" x2="100" y2="932.5" stroke="#222"/>
<text x="94" y="935.5" text-anchor="end" font-family="Arial" font-size="10" fill="#222">0.075</text>
<line x1="96" y1="895.0" x2="100" y2="895.0" stroke="#222"/>
<text x="94" y="898.0" text-anchor="end" font-family="Arial" font-size="10" fill="#222">0.194</text>
<line x1="96" y1="857.5" x2="100" y2="857.5" stroke="#222"/>
<text x="94" y="860.5" text-anchor="end" font-family="Arial" font-size="10" fill="#222">0.314</text>
<line x1="96" y1="820.0" x2="100" y2="820.0" stroke="#222"/>
<text x="94" y="823.0" text-anchor="end" font-family="Arial" font-size="10" fill="#222">0.434</text>
<text x="68" y="814" text-anchor="start" font-family="Arial" font-size="12" fill="#222">6q d5</text>
<text x="205.0" y="994" text-anchor="middle" font-family="Arial" font-size="11" fill="#222">beta</text>
<text x="70" y="895.0" text-anchor="middle" font-family="Arial" font-size="11" fill="#222" transform="rotate(-90 70 895.0)">RMSE</text>
<polygon points="117.5,949.3 161.2,925.6 205.0,904.9 292.5,886.3 292.5,940.8 205.0,948.7 161.2,948.1 117.5,952.5" fill="#e7298a" opacity="0.18" stroke="none"/>
<polyline points="117.5,951.0 161.2,935.0 205.0,919.6 292.5,907.3" fill="none" stroke="#e7298a" stroke-width="1.5"/>
<circle cx="117.5" cy="951.0" r="3.5" fill="#e7298a"/>
<circle cx="161.2" cy="935.0" r="3.5" fill="#e7298a"/>
<circle cx="205.0" cy="919.6" r="3.5" fill="#e7298a"/>
<circle cx="292.5" cy="907.3" r="3.5" fill="#e7298a"/>
</svg>