<svg xmlns="http://www.w3.org/2000/svg" width="940" height="1040">
<rect width="940" height="1040" fill="#ffffff"/>
<text x="470.0" y="28" text-anchor="middle" font-family="Arial" font-size="18" fill="#222">RMSE vs beta (n_samples=40, n_trials=8, noise=gate)</text>
<rect x="60" y="50" width="260" height="200" fill="none" stroke="#e0e0e0"/>
<line x1="100" y1="220" x2="310" y2="220" stroke="#222"/>
<line x1="100" y1="70" x2="100" y2="220" stroke="#222"/>
<line x1="100.0" y1="220" x2="100.0" y2="224" stroke="#222"/>
<line x1="152.5" y1="220" x2="152.5" y2="224" stroke="#222"/>
<line x1="205.0" y1="220" x2="205.0" y2="224" stroke="#222"/>
<line x1="257.5" y1="220" x2="257.5" y2="224" stroke="#222"/>
<line x1="310.0" y1="220" x2="310.0" y2="224" stroke="#222"/>
<line x1="96" y1="220.0" x2="100" y2="220.0" stroke="#222"/>
<text x="94" y="223.0" text-anchor="end" font-family="Arial" font-size="10" fill="#222">-0.047</text>
<line x1="96" y1="182.5" x2="100" y2="182.5" stroke="#222"/>
<text x="94" y="185.5" text-anchor="end" font-family="Arial" font-size="10" fill="#222">0.085</text>
<line x1="96" y1="145.0" x2="100" y2="145.0" stroke="#222"/>
<text x="94" y="148.0" text-anchor="end" font-family="Arial" font-size="10" fill="#222">0.216</text>
<line x1="96" y1="107.5" x2="100" y2="107.5" stroke="#222"/>
<text x="94" y="110.5" text-anchor="end" font-family="Arial" font-size="10" fill="#222">0.348</text>
<line x1="96" y1="70.0" x2="100" y2="70.0" stroke="#222"/>
<text x="94" y="73.0" text-anchor="end" font-family="Arial" font-size="10" fill="#222">0.479</text>
<text x="68" y="64" text-anchor="start" font-family="Arial" font-size="12" fill="#222">2q d3</text>
<text x="70" y="145.0" text-anchor="middle" font-family="Arial" font-size="11" fill="#222" transform="rotate(-90 70 145.0)">RMSE</text>
<polygon points="117.5,174.0 161.2,174.2 205.0,150.8 292.5,148.2 292.5,177.2 205.0,188.6 161.2,196.5 117.5,199.9" fill="#1b9e77" opacity="0.18" stroke="none"/>
<polyline points="117.5,185.3 161.2,184.8 205.0,167.6 292.5,160.3" fill="none" stroke="#1b9e77" stroke-width="1.5"/>
<circle cx="117.5" cy="185.3" r="3.5" fill="#1b9e77"/>
<circle cx="161.2" cy="184.8" r="3.5" fill="#1b9e77"/>
<circle cx="205.0" cy="167.6" r="3.5" fill="#1b9e77"/>
<circle cx="292.5" cy="160.3" r="3.5" fill="#1b9e77"/>
<rect x="360" y="50" width="260" height="200" fill="none" stroke="#e0e0e0"/>
<line x1="400" y1="220" x2="610" y2="220" stroke="#222"/>
<line x1="400" y1="70" x2="400" y2="220" stroke="#222"/>
<line x1="400.0" y1="220" x2="400.0" y2="224" stroke="#222"/>
<line x1="452.5" y1="220" x2="452.5" y2="224" stroke="#222"/>
<line x1="505.0" y1="220" x2="505.0" y2="224" stroke="#222"/>
<line x1="557.5" y1="220" x2="557.5" y2="224" stroke="#222"/>
<line x1="610.0" y1="220" x2="610.0" y2="224" stroke="#222"/>
<line x1="396" y1="220.0" x2="400" y2="220.0" stroke="#222"/>
<line x1="396" y1="182.5" x2="400" y2="182.5" stroke="#222"/>
<line x1="396" y1="145.0" x2="400" y2="145.0" stroke="#222"/>
<line x1="396" y1="107.5" x2="400" y2="107.5" stroke="#222"/>
<line x1="396" y1="70.0" x2="400" y2="70.0" stroke="#222"/>
<text x="368" y="64" text-anchor="start" font-family="Arial" font-size="12" fill="#222">2q d5</text>
<polygon points="417.5,170.6 461.2,154.7 505.0,173.8 592.5,159.1 592.5,177.3 505.0,191.5 461.2,190.6 417.5,195.7" fill="#d95f02" opacity="0.18" stroke="none"/>
<polyline points="417.5,182.8 461.2,173.5 505.0,182.4 592.5,167.7" fill="none" stroke="#d95f02" stroke-width="1.5"/>
<circle cx="417.5" cy="182.8" r="3.5" fill="#d95f02"/>
<circle cx="461.2" cy="173.5" r="3.5" fill="#d95f02"/>
<circle cx="505.0" cy="182.4" r="3.5" fill="#d95f02"/>
<circle cx="592.5" cy="167.7" r="3.5" fill="#d95f02"/>
<rect x="660" y="50" width="260" height="200" fill="none" stroke="#e0e0e0"/>
<line x1="700" y1="220" x2="910" y2="220" stroke="#222"/>
<line x1="700" y1="70" x2="700" y2="220" stroke="#222"/>
<line x1="700.0" y1="220" x2="700.0" y2="224" stroke="#222"/>
<line x1="752.5" y1="220" x2="752.5" y2="224" stroke="#222"/>
<line x1="805.0" y1="220" x2="805.0" y2="224" stroke="#222"/>
<line x1="857.5" y1="220" x2="857.5" y2="224" stroke="#222"/>
<line x1="910.0" y1="220" x2="910.0" y2="224" stroke="#222"/>
<line x1="696" y1="220.0" x2="700" y2="220.0" stroke="#222"/>
<line x1="696" y1="182.5" x2="700" y2="182.5" stroke="#222"/>
<line x1="696" y1="145.0" x2="700" y2="145.0" stroke="#222"/>
<line x1="696" y1="107.5" x2="700" y2="107.5" stroke="#222"/>
<line x1="696" y1="70.0" x2="700" y2="70.0" stroke="#222"/>
<text x="668" y="64" text-anchor="start" font-family="Arial" font-size="12" fill="#222">3q d4</text>
<polygon points="717.5,195.4 761.2,177.2 805.0,159.4 892.5,146.2 892.5,195.9 805.0,198.9 761.2,199.1 717.5,203.9" fill="#7570b3" opacity="0.18" stroke="none"/>
<polyline points="717.5,198.8 761.2,187.9 805.0,176.9 892.5,169.7" fill="none" stroke="#7570b3" stroke-width="1.5"/>
<circle cx="717.5" cy="198.8" r="3.5" fill="#7570b3"/>
<circle cx="761.2" cy="187.9" r="3.5" fill="#7570b3"/>
<circle cx="805.0" cy="176.9" r="3.5" fill="#7570b3"/>
<circle cx="892.5" cy="169.7" r="3.5" fill="#7570b3"/>
<rect x="60" y="300" width="260" height="200" fill="none" stroke="#e0e0e0"/>
<line x1="100" y1="470" x2="310" y2="470" stroke="#222"/>
<line x1="100" y1="320" x2="100" y2="470" stroke="#222"/>
<line x1="100.0" y1="470" x2="100.0" y2="474" stroke="#222"/>
<line x1="152.5" y1="470" x2="152.5" y2="474" stroke="#222"/>
<line x1="205.0" y1="470" x2="205.0" y2="474" stroke="#222"/>
<line x1="257.5" y1="470" x2="257.5" y2="474" stroke="#222"/>
<line x1="310.0" y1="470" x2="310.0" y2="474" stroke="#222"/>
<line x1="96" y1="470.0" x2="100" y2="470.0" stroke="#222"/>
<text x="94" y="473.0" text-anchor="end" font-family="Arial" font-size="10" fill="#222">-0.047</text>
<line x1="96" y1="432.5" x2="100" y2="432.5" stroke="#222"/>
<text x="94" y="435.5" text-anchor="end" font-family="Arial" font-size="10" fill="#222">0.085</text>
<line x1="96" y1="395.0" x2="100" y2="395.0" stroke="#222"/>
<text x="94" y="398.0" text-anchor="end" font-family="Arial" font-size="10" fill="#222">0.216</text>
<line x1="96" y1="357.5" x2="100" y2="357.5" stroke="#222"/>
<text x="94" y="360.5" text-anchor="end" font-family="Arial" font-size="10" fill="#222">0.348</text>
<line x1="96" y1="320.0" x2="100" y2="320.0" stroke="#222"/>
<text x="94" y="323.0" text-anchor="end" font-family="Arial" font-size="10" fill="#222">0.479</text>
<text x="68" y="314" text-anchor="start" font-family="Arial" font-size="12" fill="#222">3q d6</text>
<text x="70" y="395.0" text-anchor="middle" font-family="Arial" font-size="11" fill="#222" transform="rotate(-90 70 395.0)">RMSE</text>
<polygon points="117.5,422.2 161.2,417.1 205.0,394.7 292.5,334.5 292.5,408.4 205.0,422.4 161.2,437.3 117.5,443.2" fill="#e7298a" opacity="0.18" stroke="none"/>
<polyline points="117.5,431.1 161.2,425.7 205.0,407.8 292.5,371.0" fill="none" stroke="#e7298a" stroke-width="1.5"/>
<circle cx="117.5" cy="431.1" r="3.5" fill="#e7298a"/>
<circle cx="161.2" cy="425.7" r="3.5" fill="#e7298a"/>
<circle cx="205.0" cy="407.8" r="3.5" fill="#e7298a"/>
<circle cx="292.5" cy="371.0" r="3.5" fill="#e7298a"/>
<rect x="360" y="300" width="260" height="200" fill="none" stroke="#e0e0e0"/>
<line x1="400" y1="470" x2="610" y2="470" stroke="#222"/>
<line x1="400" y1="320" x2="400" y2="470" stroke="#222"/>
<line x1="400.0" y1="470" x2="400.0" y2="474" stroke="#222"/>
<line x1="452.5" y1="470" x2="452.5" y2="474" stroke="#222"/>
<line x1="505.0" y1="470" x2="505.0" y2="474" stroke="#222"/>
<line x1="557.5" y1="470" x2="557.5" y2="474" stroke="#222"/>
<line x1="610.0" y1="470" x2="610.0" y2="474" stroke="#222"/>
<line x1="396" y1="470.0" x2="400" y2="470.0" stroke="#222"/>
<line x1="396" y1="432.5" x2="400" y2="432.5" stroke="#222"/>
<line x1="396" y1="395.0" x2="400" y2="395.0" stroke="#222"/>
<line x1="396" y1="357.5" x2="400" y2="357.5" stroke="#222"/>
<line x1="396" y1="320.0" x2="400" y2="320.0" stroke="#222"/>
<text x="368" y="314" text-anchor="start" font-family="Arial" font-size="12" fill="#222">4q d4</text>
<polygon points="417.5,390.2 461.2,423.0 505.0,418.1 592.5,405.5 592.5,439.0 505.0,447.8 461.2,445.1 417.5,443.9" fill="#66a61e" opacity="0.18" stroke="none"/>
<polyline points="417.5,415.9 461.2,432.5 505.0,431.0 592.5,423.4" fill="none" stroke="#66a61e" stroke-width="1.5"/>
<circle cx="417.5" cy="415.9" r="3.5" fill="#66a61e"/>
<circle cx="461.2" cy="432.5" r="3.5" fill="#66a61e"/>
<circle cx="505.0" cy="431.0" r="3.5" fill="#66a61e"/>
<circle cx="592.5" cy="423.4" r="3.5" fill="#66a61e"/>
<rect x="660" y="300" width="260" height="200" fill="none" stroke="#e0e0e0"/>
<line x1="700" y1="470" x2="910" y2="470" stroke="#222"/>
<line x1="700" y1="320" x2="700" y2="470" stroke="#222"/>
<line x1="700.0" y1="470" x2="700.0" y2="474" stroke="#222"/>
<line x1="752.5" y1="470" x2="752.5" y2="474" stroke="#222"/>
<line x1="805.0" y1="470" x2="805.0" y2="474" stroke="#222"/>
<line x1="857.5" y1="470" x2="857.5" y2="474" stroke="#222"/>
<line x1="910.0" y1="470" x2="910.0" y2="474" stroke="#222"/>
<line x1="696" y1="470.0" x2="700" y2="470.0" stroke="#222"/>
<line x1="696" y1="432.5" x2="700" y2="432.5" stroke="#222"/>
<line x1="696" y1="395.0" x2="700" y2="395.0" stroke="#222"/>
<line x1="696" y1="357.5" x2="700" y2="357.5" stroke="#222"/>
<line x1="696" y1="320.0" x2="700" y2="320.0" stroke="#222"/>
<text x="668" y="314" text-anchor="start" font-family="Arial" font-size="12" fill="#222">4q d6</text>
<polygon points="717.5,351.8 761.2,429.2 805.0,367.5 892.5,334.7 892.5,441.2 805.0,434.8 761.2,443.2 717.5,434.3" fill="#e6ab02" opacity="0.18" stroke="none"/>
<polyline points="717.5,394.9 761.2,435.0 805.0,402.0 892.5,379.8" fill="none" stroke="#e6ab02" stroke-width="1.5"/>
<circle cx="717.5" cy="394.9" r="3.5" fill="#e6ab02"/>
<circle cx="761.2" cy="435.0" r="3.5" fill="#e6ab02"/>
<circle cx="805.0" cy="402.0" r="3.5" fill="#e6ab02"/>
<circle cx="892.5" cy="379.8" r="3.5" fill="#e6ab02"/>
<rect x="60" y="550" width="260" height="200" fill="none" stroke="#e0e0e0"/>
<line x1="100" y1="720" x2="310" y2="720" stroke="#222"/>
<line x1="100" y1="570" x2="100" y2="720" stroke="#222"/>
<line x1="100.0" y1="720" x2="100.0" y2="724" stroke="#222"/>
<line x1="152.5" y1="720" x2="152.5" y2="724" stroke="#222"/>
<line x1="205.0" y1="720" x2="205.0" y2="724" stroke="#222"/>
<line x1="257.5" y1="720" x2="257.5" y2="724" stroke="#222"/>
<line x1="310.0" y1="720" x2="310.0" y2="724" stroke="#222"/>
<line x1="96" y1="720.0" x2="100" y2="720.0" stroke="#222"/>
<text x="94" y="723.0" text-anchor="end" font-family="Arial" font-size="10" fill="#222">-0.047</text>
<line x1="96" y1="682.5" x2="100" y2="682.5" stroke="#222"/>
<text x="94" y="685.5" text-anchor="end" font-family="Arial" font-size="10" fill="#222">0.085</text>
<line x1="96" y1="645.0" x2="100" y2="645.0" stroke="#222"/>
<text x="94" y="648.0" text-anchor="end" font-family="Arial" font-size="10" fill="#222">0.216</text>
<line x1="96" y1="607.5" x2="100" y2="607.5" stroke="#222"/>
<text x="94" y="610.5" text-anchor="end" font-family="Arial" font-size="10" fill="#222">0.348</text>
<line x1="96" y1="570.0" x2="100" y2="570.0" stroke="#222"/>
<text x="94" y="573.0" text-anchor="end" font-family="Arial" font-size="10" fill="#222">0.479</text>
<text x="68" y="564" text-anchor="start" font-family="Arial" font-size="12" fill="#222">5q d4</text>
<text x="70" y="645.0" text-anchor="middle" font-family="Arial" font-size="11" fill="#222" transform="rotate(-90 70 645.0)">RMSE</text>
<polygon points="117.5,604.5 161.2,674.5 205.0,659.7 292.5,645.4 292.5,703.5 205.0,703.7 161.2,704.0 117.5,701.0" fill="#1b9e77" opacity="0.18" stroke="none"/>
<polyline points="117.5,647.3 161.2,686.5 205.0,673.8 292.5,669.6" fill="none" stroke="#1b9e77" stroke-width="1.5"/>
<circle cx="117.5" cy="647.3" r="3.5" fill="#1b9e77"/>
<circle cx="161.2" cy="686.5" r="3.5" fill="#1b9e77"/>
<circle cx="205.0" cy="673.8" r="3.5" fill="#1b9e77"/>
<circle cx="292.5" cy="669.6" r="3.5" fill="#1b9e77"/>
<rect x="360" y="550" width="260" height="200" fill="none" stroke="#e0e0e0"/>
<line x1="400" y1="720" x2="610" y2="720" stroke="#222"/>
<line x1="400" y1="570" x2="400" y2="720" stroke="#222"/>
<line x1="400.0" y1="720" x2="400.0" y2="724" stroke="#222"/>
<line x1="452.5" y1="720" x2="452.5" y2="724" stroke="#222"/>
<line x1="505.0" y1="720" x2="505.0" y2="724" stroke="#222"/>
<line x1="557.5" y1="720" x2="557.5" y2="724" stroke="#222"/>
<line x1="610.0" y1="720" x2="610.0" y2="724" stroke="#222"/>
<line x1="396" y1="720.0" x2="400" y2="720.0" stroke="#222"/>
<line x1="396" y1="682.5" x2="400" y2="682.5" stroke="#222"/>
<line x1="396" y1="645.0" x2="400" y2="645.0" stroke="#222"/>
<line x1="396" y1="607.5" x2="400" y2="607.5" stroke="#222"/>
<line x1="396" y1="570.0" x2="400" y2="570.0" stroke="#222"/>
<text x="368" y="564" text-anchor="start" font-family="Arial" font-size="12" fill="#222">5q d6</text>
<polygon points="417.5,604.7 461.2,636.7 505.0,662.8 592.5,662.7 592.5,698.4 505.0,694.4 461.2,694.8 417.5,699.8" fill="#d95f02" opacity="0.18" stroke="none"/>
<polyline points="417.5,643.8 461.2,664.4 505.0,678.0 592.5,675.2" fill="none" stroke="#d95f02" stroke-width="1.5"/>
<circle cx="417.5" cy="643.8" r="3.5" fill="#d95f02"/>
<circle cx="461.2" cy="664.4" r="3.5" fill="#d95f02"/>
<circle cx="505.0" cy="678.0" r="3.5" fill="#d95f02"/>
<circle cx="592.5" cy="675.2" r="3.5" fill="#d95f02"/>
<rect x="660" y="550" width="260" height="200" fill="none" stroke="#e0e0e0"/>
<line x1="700" y1="720" x2="910" y2="720" stroke="#222"/>
<line x1="700" y1="570" x2="700" y2="720" stroke="#222"/>
<line x1="700.0" y1="720" x2="700.0" y2="724" stroke="#222"/>
<line x1="752.5" y1="720" x2="752.5" y2="724" stroke="#222"/>
<line x1="805.0" y1="720" x2="805.0" y2="724" stroke="#222"/>
<line x1="857.5" y1="720" x2="857.5" y2="724" stroke="#222"/>
<line x1="910.0" y1="720" x2="910.0" y2="724" stroke="#222"/>
<line x1="696" y1="720.0" x2="700" y2="720.0" stroke="#222"/>
<line x1="696" y1="682.5" x2="700" y2="682.5" stroke="#222"/>
<line x1="696" y1="645.0" x2="700" y2="645.0" stroke="#222"/>
<line x1="696" y1="607.5" x2="700" y2="607.5" stroke="#222"/>
<line x1="696" y1="570.0" x2="700" y2="570.0" stroke="#222"/>
<text x="668" y="564" text-anchor="start" font-family="Arial" font-size="12" fill="#222">6q d4</text>
<polygon points="717.5,695.0 761.2,702.6 805.0,700.9 892.5,695.1 892.5,705.0 805.0,704.9 761.2,705.5 717.5,703.1" fill="#7570b3" opacity="0.18" stroke="none"/>
<polyline points="717.5,698.9 761.2,703.8 805.0,702.6 892.5,699.3" fill="none" stroke="#7570b3" stroke-width="1.5"/>
<circle cx="717.5" cy="698.9" r="3.5" fill="#7570b3"/>
<circle cx="761.2" cy="703.8" r="3.5" fill="#7570b3"/>
<circle cx="805.0" cy="702.6" r="3.5" fill="#7570b3"/>
<circle cx="892.5" cy="699.3" r="3.5" fill="#7570b3"/>
<rect x="60" y="800" width="260" height="200" fill="none" stroke="#e0e0e0"/>
<line x1="100" y1="970" x2="310" y2="970" stroke="#222"/>
<line x1="100" y1="820" x2="100" y2="970" stroke="#222"/>
<line x1="100.0" y1="970" x2="100.0" y2="974" stroke="#222"/>
<text x="100.0" y="986" text-anchor="middle" font-family="Arial" font-size="10" fill="#222">-0.02</text>
<line x1="152.5" y1="970" x2="152.5" y2="974" stroke="#222"/>
<text x="152.5" y="986" text-anchor="middle" font-family="Arial" font-size="10" fill="#222">0.04</text>
<line x1="205.0" y1="970" x2="205.0" y2="974" stroke="#222"/>
<text x="205.0" y="986" text-anchor="middle" font-family="Arial" font-size="10" fill="#222">0.10</text>
<line x1="257.5" y1="970" x2="257.5" y2="974" stroke="#222"/>
<text x="257.5" y="986" text-anchor="middle" font-family="Arial" font-size="10" fill="#222">0.16</text>
<line x1="310.0" y1="970" x2="310.0" y2="974" stroke="#222"/>
<text x="310.0" y="986" text-anchor="middle" font-family="Arial" font-size="10" fill="#222">0.22</text>
<line x1="96" y1="970.0" x2="100" y2="970.0" stroke="#222"/>
<text x="94" y="973.0" text-anchor="end" font-family="Arial" font-size="10" fill="#222">-0.047</text>
<line x1="96" y1="932.5" x2="100" y2="932.5" stroke="#222"/>
<text x="94" y="935.5" text-anchor="end" font-family="Arial" font-size="10" fill="#222">0.085</text>
<line x1="96" y1="895.0" x2="100" y2="895.0" stroke="#222"/>
<text x="94" y="898.0" text-anchor="end" font-family="Arial" font-size="10" fill="#222">0.216</text>
<line x1="96" y1="857.5" x2="100" y2="857.5" stroke="#222"/>
<text x="94" y="860.5" text-anchor="end" font-family="Arial" font-size="10" fill="#222">0.348</text>
<line x1="96" y1="820.0" x2="100" y2="820.0" stroke="#222"/>
<text x="94" y="823.0" text-anchor="end" font-family="Arial" font-size="10" fill="#222">0.479</text>
<text x="68" y="814" text-anchor="start" font-family="Arial" font-size="12" fill="#222">6q d5</text>
<text x="205.0" y="994" text-anchor="middle" font-family="Arial" font-size="11" fill="#222">beta</text>
<text x="70" y="895.0" text-anchor="middle" font-family="Arial" font-size="11" fill="#222" transform="rotate(-90 70 895.0)">RMSE</text>
<polygon points="117.5,893.5 161.2,908.2 205.0,929.4 292.5,884.1 292.5,936.3 205.0,949.4 161.2,952.4 117.5,932.4" fill="#e7298a" opacity="0.18" stroke="none"/>
<polyline points="117.5,909.2 161.2,922.3 205.0,938.5 292.5,907.6" fill="none" stroke="#e7298a" stroke-width="1.5"/>
<circle cx="117.5" cy="909.2" r="3.5" fill="#e7298a"/>
<circle cx="161.2" cy="922.3" r="3.5" fill="#e7298a"/>
<circle cx="205.0" cy="938.5" r="3.5" fill="#e7298a"/>
<circle cx="292.5" cy="907.6" r="3.5" fill="#e7298a"/>
</svg>