<svg xmlns="http://www.w3.org/2000/svg" width="800" height="480">
<rect width="800" height="480" fill="#ffffff"/>
<text x="400.0" y="28" text-anchor="middle" font-family="Arial" font-size="18" fill="#222">Fixed instance (config=3q_d4, repeats=20, noise=gate)</text>
<line x1="70" y1="420" x2="640" y2="420" stroke="#222" />
<line x1="70" y1="420" x2="70" y2="50" stroke="#222" />
<line x1="70.0" y1="420" x2="70.0" y2="426" stroke="#222"/>
<text x="70.0" y="442" text-anchor="middle" font-family="Arial" font-size="12" fill="#222">-0.02</text>
<line x1="212.5" y1="420" x2="212.5" y2="426" stroke="#222"/>
<text x="212.5" y="442" text-anchor="middle" font-family="Arial" font-size="12" fill="#222">0.04</text>
<line x1="355.0" y1="420" x2="355.0" y2="426" stroke="#222"/>
<text x="355.0" y="442" text-anchor="middle" font-family="Arial" font-size="12" fill="#222">0.10</text>
<line x1="497.5" y1="420" x2="497.5" y2="426" stroke="#222"/>
<text x="497.5" y="442" text-anchor="middle" font-family="Arial" font-size="12" fill="#222">0.16</text>
<line x1="640.0" y1="420" x2="640.0" y2="426" stroke="#222"/>
<text x="640.0" y="442" text-anchor="middle" font-family="Arial" font-size="12" fill="#222">0.22</text>
<line x1="64" y1="420.0" x2="70" y2="420.0" stroke="#222"/>
<text x="60" y="424.0" text-anchor="end" font-family="Arial" font-size="12" fill="#222">0.004</text>
<line x1="64" y1="327.5" x2="70" y2="327.5" stroke="#222"/>
<text x="60" y="331.5" text-anchor="end" font-family="Arial" font-size="12" fill="#222">0.019</text>
<line x1="64" y1="235.0" x2="70" y2="235.0" stroke="#222"/>
<text x="60" y="239.0" text-anchor="end" font-family="Arial" font-size="12" fill="#222">0.034</text>
<line x1="64" y1="142.5" x2="70" y2="142.5" stroke="#222"/>
<text x="60" y="146.5" text-anchor="end" font-family="Arial" font-size="12" fill="#222">0.049</text>
<line x1="64" y1="50.0" x2="70" y2="50.0" stroke="#222"/>
<text x="60" y="54.0" text-anchor="end" font-family="Arial" font-size="12" fill="#222">0.063</text>
<text x="355.0" y="460" text-anchor="middle" font-family="Arial" font-size="14" fill="#222">beta</text>
<text x="20" y="235.0" text-anchor="middle" font-family="Arial" font-size="14" fill="#222" transform="rotate(-90 20 235.0)">Empirical std</text>
<polyline points="117.5,85.8 236.2,209.4 355.0,284.8 592.5,303.3" fill="none" stroke="#1b9e77" stroke-width="1.5"/>
<circle cx="117.5" cy="85.8" r="4" fill="#1b9e77"/>
<circle cx="236.2" cy="209.4" r="4" fill="#1b9e77"/>
<circle cx="355.0" cy="284.8" r="4" fill="#1b9e77"/>
<circle cx="592.5" cy="303.3" r="4" fill="#1b9e77"/>
<polyline points="117.5,236.1 236.2,296.7 355.0,342.7 592.5,352.5" fill="none" stroke="#d95f02" stroke-width="1.5"/>
<circle cx="117.5" cy="236.1" r="4" fill="#d95f02"/>
<circle cx="236.2" cy="296.7" r="4" fill="#d95f02"/>
<circle cx="355.0" cy="342.7" r="4" fill="#d95f02"/>
<circle cx="592.5" cy="352.5" r="4" fill="#d95f02"/>
<polyline points="117.5,315.6 236.2,348.7 355.0,361.7 592.5,384.2" fill="none" stroke="#7570b3" stroke-width="1.5"/>
<circle cx="117.5" cy="315.6" r="4" fill="#7570b3"/>
<circle cx="236.2" cy="348.7" r="4" fill="#7570b3"/>
<circle cx="355.0" cy="361.7" r="4" fill="#7570b3"/>
<circle cx="592.5" cy="384.2" r="4" fill="#7570b3"/>
<rect x="660" y="44" width="130" height="64" fill="#f7f7f7" stroke="#ddd"/>
<rect x="668" y="51" width="10" height="10" fill="#1b9e77"/>
<text x="684" y="60" font-family="Arial" font-size="12" fill="#222">n=40</text>
<rect x="668" y="69" width="10" height="10" fill="#d95f02"/>
<text x="684" y="78" font-family="Arial" font-size="12" fill="#222">n=80</text>
<rect x="668" y="87" width="10" height="10" fill="#7570b3"/>
<text x="684" y="96" font-family="Arial" font-size="12" fill="#222">n=160</text>
</svg>