<svg xmlns="http://www.w3.org/2000/svg" width="900" height="560">
<rect width="900" height="560" fill="#ffffff"/>
<text x="450.0" y="28" text-anchor="middle" font-family="Arial" font-size="18" fill="#222">Bias vs Effective Samples (n_trials=8, n_samples=40)</text>
<line x1="90" y1="480" x2="870" y2="480" stroke="#222" />
<line x1="90" y1="480" x2="90" y2="50" stroke="#222" />
<line x1="90.0" y1="480" x2="90.0" y2="486" stroke="#222"/>
<text x="90.0" y="502" text-anchor="middle" font-family="Arial" font-size="12" fill="#222">13.22</text>
<line x1="285.0" y1="480" x2="285.0" y2="486" stroke="#222"/>
<text x="285.0" y="502" text-anchor="middle" font-family="Arial" font-size="12" fill="#222">19.55</text>
<line x1="480.0" y1="480" x2="480.0" y2="486" stroke="#222"/>
<text x="480.0" y="502" text-anchor="middle" font-family="Arial" font-size="12" fill="#222">25.88</text>
<line x1="675.0" y1="480" x2="675.0" y2="486" stroke="#222"/>
<text x="675.0" y="502" text-anchor="middle" font-family="Arial" font-size="12" fill="#222">32.20</text>
<line x1="870.0" y1="480" x2="870.0" y2="486" stroke="#222"/>
<text x="870.0" y="502" text-anchor="middle" font-family="Arial" font-size="12" fill="#222">38.53</text>
<line x1="84" y1="480.0" x2="90" y2="480.0" stroke="#222"/>
<text x="80" y="484.0" text-anchor="end" font-family="Arial" font-size="12" fill="#222">-0.120</text>
<line x1="84" y1="372.5" x2="90" y2="372.5" stroke="#222"/>
<text x="80" y="376.5" text-anchor="end" font-family="Arial" font-size="12" fill="#222">-0.035</text>
<line x1="84" y1="265.0" x2="90" y2="265.0" stroke="#222"/>
<text x="80" y="269.0" text-anchor="end" font-family="Arial" font-size="12" fill="#222">0.050</text>
<line x1="84" y1="157.5" x2="90" y2="157.5" stroke="#222"/>
<text x="80" y="161.5" text-anchor="end" font-family="Arial" font-size="12" fill="#222">0.135</text>
<line x1="84" y1="50.0" x2="90" y2="50.0" stroke="#222"/>
<text x="80" y="54.0" text-anchor="end" font-family="Arial" font-size="12" fill="#222">0.220</text>
<text x="480.0" y="535" text-anchor="middle" font-family="Arial" font-size="14" fill="#222">Effective samples (n_samples / gamma^2)</text>
<text x="22" y="265.0" text-anchor="middle" font-family="Arial" font-size="14" fill="#222" transform="rotate(-90 22 265.0)">Bias (estimate - ideal)</text>
<rect x="143.8" y="216.6" width="125.9" height="113.3" fill="#1b9e77" opacity="0.12" stroke="none" />
<circle cx="206.7" cy="273.2" r="5" fill="#1b9e77" />
<text x="214.7" y="265.2" font-family="Arial" font-size="12" fill="#222">beta=0.00</text>
<rect x="278.7" y="249.5" width="156.6" height="125.8" fill="#d95f02" opacity="0.12" stroke="none" />
<circle cx="357.0" cy="312.4" r="5" fill="#d95f02" />
<text x="365.0" y="304.4" font-family="Arial" font-size="12" fill="#222">beta=0.05</text>
<rect x="415.2" y="206.4" width="196.2" height="232.0" fill="#7570b3" opacity="0.12" stroke="none" />
<circle cx="513.3" cy="322.4" r="5" fill="#7570b3" />
<text x="521.3" y="314.4" font-family="Arial" font-size="12" fill="#222">beta=0.10</text>
<rect x="667.4" y="91.6" width="148.8" height="285.2" fill="#e7298a" opacity="0.12" stroke="none" />
<circle cx="741.8" cy="234.2" r="5" fill="#e7298a" />
<text x="749.8" y="226.2" font-family="Arial" font-size="12" fill="#222">beta=0.20</text>
</svg>