<svg xmlns="http://www.w3.org/2000/svg" width="960" height="560">
<rect width="960" height="560" fill="#ffffff"/>
<text x="480.0" y="28" text-anchor="middle" font-family="Arial" font-size="18" fill="#222">RMSE vs beta (n_samples=40, n_trials=100, noise=gate)</text>
<line x1="90" y1="480" x2="930" y2="480" stroke="#222" />
<line x1="90" y1="480" x2="90" y2="50" stroke="#222" />
<line x1="90.0" y1="480" x2="90.0" y2="486" stroke="#222"/>
<text x="90.0" y="502" text-anchor="middle" font-family="Arial" font-size="12" fill="#222">-0.02</text>
<line x1="300.0" y1="480" x2="300.0" y2="486" stroke="#222"/>
<text x="300.0" y="502" text-anchor="middle" font-family="Arial" font-size="12" fill="#222">0.04</text>
<line x1="510.0" y1="480" x2="510.0" y2="486" stroke="#222"/>
<text x="510.0" y="502" text-anchor="middle" font-family="Arial" font-size="12" fill="#222">0.10</text>
<line x1="720.0" y1="480" x2="720.0" y2="486" stroke="#222"/>
<text x="720.0" y="502" text-anchor="middle" font-family="Arial" font-size="12" fill="#222">0.16</text>
<line x1="930.0" y1="480" x2="930.0" y2="486" stroke="#222"/>
<text x="930.0" y="502" text-anchor="middle" font-family="Arial" font-size="12" fill="#222">0.22</text>
<line x1="84" y1="480.0" x2="90" y2="480.0" stroke="#222"/>
<text x="80" y="484.0" text-anchor="end" font-family="Arial" font-size="12" fill="#222">-0.026</text>
<line x1="84" y1="372.5" x2="90" y2="372.5" stroke="#222"/>
<text x="80" y="376.5" text-anchor="end" font-family="Arial" font-size="12" fill="#222">0.110</text>
<line x1="84" y1="265.0" x2="90" y2="265.0" stroke="#222"/>
<text x="80" y="269.0" text-anchor="end" font-family="Arial" font-size="12" fill="#222">0.247</text>
<line x1="84" y1="157.5" x2="90" y2="157.5" stroke="#222"/>
<text x="80" y="161.5" text-anchor="end" font-family="Arial" font-size="12" fill="#222">0.384</text>
<line x1="84" y1="50.0" x2="90" y2="50.0" stroke="#222"/>
<text x="80" y="54.0" text-anchor="end" font-family="Arial" font-size="12" fill="#222">0.520</text>
<text x="510.0" y="535" text-anchor="middle" font-family="Arial" font-size="14" fill="#222">beta</text>
<text x="22" y="265.0" text-anchor="middle" font-family="Arial" font-size="14" fill="#222" transform="rotate(-90 22 265.0)">RMSE</text>
<rect x="93.8" y="359.9" width="29.4" height="45.9" fill="#1b9e77" opacity="0.12" stroke="none" />
<circle cx="108.5" cy="380.5" r="5" fill="#1b9e77" />
<rect x="268.8" y="382.8" width="29.4" height="32.6" fill="#1b9e77" opacity="0.12" stroke="none" />
<circle cx="283.5" cy="399.2" r="5" fill="#1b9e77" />
<rect x="443.8" y="372.7" width="29.4" height="26.0" fill="#1b9e77" opacity="0.12" stroke="none" />
<circle cx="458.5" cy="385.4" r="5" fill="#1b9e77" />
<rect x="793.8" y="325.5" width="29.4" height="32.6" fill="#1b9e77" opacity="0.12" stroke="none" />
<circle cx="808.6" cy="342.1" r="5" fill="#1b9e77" />
<rect x="114.4" y="378.3" width="29.4" height="46.5" fill="#d95f02" opacity="0.12" stroke="none" />
<circle cx="129.1" cy="403.7" r="5" fill="#d95f02" />
<rect x="289.4" y="421.0" width="29.4" height="14.1" fill="#d95f02" opacity="0.12" stroke="none" />
<circle cx="304.1" cy="427.6" r="5" fill="#d95f02" />
<rect x="464.4" y="407.3" width="29.4" height="16.2" fill="#d95f02" opacity="0.12" stroke="none" />
<circle cx="479.1" cy="414.6" r="5" fill="#d95f02" />
<rect x="814.4" y="377.9" width="29.4" height="30.7" fill="#d95f02" opacity="0.12" stroke="none" />
<circle cx="829.1" cy="391.0" r="5" fill="#d95f02" />
<rect x="135.0" y="91.6" width="29.4" height="291.5" fill="#7570b3" opacity="0.12" stroke="none" />
<circle cx="149.7" cy="232.4" r="5" fill="#7570b3" />
<rect x="310.0" y="235.7" width="29.4" height="134.7" fill="#7570b3" opacity="0.12" stroke="none" />
<circle cx="324.7" cy="306.9" r="5" fill="#7570b3" />
<rect x="485.0" y="327.0" width="29.4" height="52.8" fill="#7570b3" opacity="0.12" stroke="none" />
<circle cx="499.7" cy="356.4" r="5" fill="#7570b3" />
<rect x="835.0" y="313.1" width="29.4" height="41.2" fill="#7570b3" opacity="0.12" stroke="none" />
<circle cx="849.7" cy="333.8" r="5" fill="#7570b3" />
<rect x="155.6" y="372.9" width="29.4" height="44.4" fill="#e7298a" opacity="0.12" stroke="none" />
<circle cx="170.3" cy="393.3" r="5" fill="#e7298a" />
<rect x="330.6" y="377.0" width="29.4" height="46.5" fill="#e7298a" opacity="0.12" stroke="none" />
<circle cx="345.3" cy="401.2" r="5" fill="#e7298a" />
<rect x="505.6" y="366.6" width="29.4" height="48.7" fill="#e7298a" opacity="0.12" stroke="none" />
<circle cx="520.3" cy="389.5" r="5" fill="#e7298a" />
<rect x="855.6" y="368.0" width="29.4" height="30.4" fill="#e7298a" opacity="0.12" stroke="none" />
<circle cx="870.3" cy="383.1" r="5" fill="#e7298a" />
<rect x="176.2" y="291.1" width="29.4" height="99.3" fill="#66a61e" opacity="0.12" stroke="none" />
<circle cx="190.9" cy="337.8" r="5" fill="#66a61e" />
<rect x="351.2" y="285.7" width="29.4" height="117.8" fill="#66a61e" opacity="0.12" stroke="none" />
<circle cx="365.9" cy="345.8" r="5" fill="#66a61e" />
<rect x="526.2" y="342.7" width="29.4" height="50.0" fill="#66a61e" opacity="0.12" stroke="none" />
<circle cx="540.9" cy="367.1" r="5" fill="#66a61e" />
<rect x="876.2" y="340.2" width="29.4" height="38.8" fill="#66a61e" opacity="0.12" stroke="none" />
<circle cx="890.9" cy="362.0" r="5" fill="#66a61e" />
<rect x="196.8" y="403.8" width="29.4" height="33.7" fill="#e6ab02" opacity="0.12" stroke="none" />
<circle cx="211.4" cy="420.8" r="5" fill="#e6ab02" />
<rect x="371.8" y="415.0" width="29.4" height="23.4" fill="#e6ab02" opacity="0.12" stroke="none" />
<circle cx="386.4" cy="427.2" r="5" fill="#e6ab02" />
<rect x="546.8" y="405.2" width="29.4" height="20.9" fill="#e6ab02" opacity="0.12" stroke="none" />
<circle cx="561.4" cy="416.4" r="5" fill="#e6ab02" />
<rect x="896.7" y="382.2" width="29.4" height="30.7" fill="#e6ab02" opacity="0.12" stroke="none" />
<circle cx="911.4" cy="396.9" r="5" fill="#e6ab02" />
<rect x="770" y="44" width="160" height="118" fill="#f7f7f7" stroke="#ddd"/>
<rect x="778" y="51" width="10" height="10" fill="#1b9e77"/>
<text x="794" y="60" font-family="Arial" font-size="12" fill="#222">2q d2</text>
<rect x="778" y="69" width="10" height="10" fill="#d95f02"/>
<text x="794" y="78" font-family="Arial" font-size="12" fill="#222">3q d3</text>
<rect x="778" y="87" width="10" height="10" fill="#7570b3"/>
<text x="794" y="96" font-family="Arial" font-size="12" fill="#222">3q d4</text>
<rect x="778" y="105" width="10" height="10" fill="#e7298a"/>
<text x="794" y="114" font-family="Arial" font-size="12" fill="#222">4q d3</text>
<rect x="778" y="123" width="10" height="10" fill="#66a61e"/>
<text x="794" y="132" font-family="Arial" font-size="12" fill="#222">4q d4</text>
<rect x="778" y="141" width="10" height="10" fill="#e6ab02"/>
<text x="794" y="150" font-family="Arial" font-size="12" fill="#222">5q d3</text>
</svg>